<svg width="47" height="47" viewBox="0 0 47 47" fill="none" xmlns="http://www.w3.org/2000/svg">
<rect width="47" height="47" rx="12" fill="#06102D"/>
<path d="M13.7266 31.24C12.7346 31.24 11.8706 31.016 11.1346 30.568C10.3986 30.12 9.82256 29.528 9.40656 28.792V36.112H6.19056V18.424H8.99856V20.584C9.46256 19.848 10.0626 19.272 10.7986 18.856C11.5506 18.424 12.3986 18.208 13.3426 18.208C14.4786 18.208 15.4866 18.504 16.3666 19.096C17.2466 19.672 17.9426 20.456 18.4546 21.448C18.9666 22.424 19.2226 23.504 19.2226 24.688C19.2226 25.92 18.9826 27.032 18.5026 28.024C18.0386 29 17.3906 29.784 16.5586 30.376C15.7426 30.952 14.7986 31.24 13.7266 31.24ZM12.6466 28.504C13.3026 28.504 13.8706 28.328 14.3506 27.976C14.8466 27.608 15.2306 27.136 15.5026 26.56C15.7906 25.968 15.9346 25.344 15.9346 24.688C15.9346 23.984 15.7826 23.352 15.4786 22.792C15.1746 22.216 14.7586 21.768 14.2306 21.448C13.7186 21.112 13.1266 20.944 12.4546 20.944C11.8466 20.944 11.2386 21.144 10.6306 21.544C10.0226 21.944 9.61456 22.448 9.40656 23.056V26.008C9.69456 26.712 10.1346 27.304 10.7266 27.784C11.3186 28.264 11.9586 28.504 12.6466 28.504Z" fill="#D42169"/>
<path d="M40.9375 31H37.7215V23.944C37.7215 22.952 37.5455 22.224 37.1935 21.76C36.8575 21.28 36.3855 21.04 35.7775 21.04C35.1375 21.04 34.5375 21.288 33.9775 21.784C33.4175 22.264 33.0175 22.896 32.7775 23.68V31H29.5615V23.944C29.5615 22.936 29.3855 22.2 29.0335 21.736C28.6975 21.272 28.2255 21.04 27.6175 21.04C26.9935 21.04 26.3935 21.28 25.8175 21.76C25.2575 22.24 24.8575 22.872 24.6175 23.656V31H21.4015V18.424H24.3055V20.752C24.7695 19.936 25.4015 19.312 26.2015 18.88C27.0175 18.432 27.9455 18.208 28.9855 18.208C30.0255 18.208 30.8335 18.464 31.4095 18.976C32.0015 19.488 32.3775 20.12 32.5375 20.872C33.0335 20.008 33.6815 19.352 34.4815 18.904C35.2815 18.44 36.1775 18.208 37.1695 18.208C37.9535 18.208 38.5855 18.352 39.0655 18.64C39.5615 18.912 39.9455 19.288 40.2175 19.768C40.4895 20.232 40.6735 20.76 40.7695 21.352C40.8815 21.944 40.9375 22.544 40.9375 23.152V31Z" fill="#FFA2AF"/>
</svg>
