<svg width="186" height="50" viewBox="0 0 186 50" fill="none" xmlns="http://www.w3.org/2000/svg">
<path d="M11.25 33.3C10.01 33.3 8.93 33.03 8.01 32.49C7.09 31.93 6.37 31.18 5.85 30.24V39.39H1.83V17.28H5.34V19.98C5.92 19.06 6.67 18.34 7.59 17.82C8.51 17.28 9.57 17.01 10.77 17.01C11.83 17.01 12.81 17.23 13.71 17.67C14.61 18.09 15.38 18.67 16.02 19.41C16.68 20.13 17.19 20.99 17.55 21.99C17.93 22.97 18.12 24.01 18.12 25.11C18.12 26.25 17.95 27.32 17.61 28.32C17.27 29.32 16.79 30.19 16.17 30.93C15.57 31.67 14.85 32.25 14.01 32.67C13.17 33.09 12.25 33.3 11.25 33.3ZM9.9 29.88C10.5 29.88 11.05 29.75 11.55 29.49C12.07 29.23 12.51 28.88 12.87 28.44C13.23 28 13.51 27.49 13.71 26.91C13.91 26.33 14.01 25.73 14.01 25.11C14.01 24.45 13.9 23.84 13.68 23.28C13.46 22.7 13.15 22.2 12.75 21.78C12.37 21.36 11.91 21.03 11.37 20.79C10.85 20.55 10.28 20.43 9.66 20.43C9.28 20.43 8.89 20.5 8.49 20.64C8.09 20.76 7.72 20.94 7.38 21.18C7.04 21.42 6.73 21.7 6.45 22.02C6.19 22.34 5.99 22.69 5.85 23.07V26.76C6.21 27.66 6.76 28.41 7.5 29.01C8.24 29.59 9.04 29.88 9.9 29.88ZM25.6437 33.3C24.0237 33.3 22.7937 32.78 21.9537 31.74C21.1137 30.7 20.6937 29.16 20.6937 27.12V17.28H24.7137V26.25C24.7137 28.67 25.5837 29.88 27.3237 29.88C28.1037 29.88 28.8537 29.65 29.5737 29.19C30.3137 28.71 30.9137 27.99 31.3737 27.03V17.28H35.3937V28.38C35.3937 28.8 35.4637 29.1 35.6037 29.28C35.7637 29.46 36.0137 29.56 36.3537 29.58V33C35.9537 33.08 35.6137 33.13 35.3337 33.15C35.0737 33.17 34.8337 33.18 34.6137 33.18C33.8937 33.18 33.3037 33.02 32.8437 32.7C32.4037 32.36 32.1437 31.9 32.0637 31.32L31.9737 30.06C31.2737 31.14 30.3737 31.95 29.2737 32.49C28.1737 33.03 26.9637 33.3 25.6437 33.3ZM48.7486 20.76C47.5286 20.78 46.4386 21.02 45.4786 21.48C44.5186 21.92 43.8286 22.59 43.4086 23.49V33H39.3886V17.28H43.0786V20.64C43.3586 20.1 43.6886 19.62 44.0686 19.2C44.4486 18.76 44.8586 18.38 45.2986 18.06C45.7386 17.74 46.1786 17.5 46.6186 17.34C47.0786 17.16 47.5186 17.07 47.9386 17.07C48.1586 17.07 48.3186 17.07 48.4186 17.07C48.5386 17.07 48.6486 17.08 48.7486 17.1V20.76ZM57.4891 33.3C56.2291 33.3 55.0891 33.09 54.0691 32.67C53.0491 32.23 52.1791 31.64 51.4591 30.9C50.7391 30.16 50.1791 29.3 49.7791 28.32C49.3991 27.34 49.2091 26.31 49.2091 25.23C49.2091 24.11 49.3991 23.06 49.7791 22.08C50.1591 21.08 50.7091 20.21 51.4291 19.47C52.1491 18.71 53.0191 18.11 54.0391 17.67C55.0791 17.23 56.2391 17.01 57.5191 17.01C58.7991 17.01 59.9391 17.23 60.9391 17.67C61.9591 18.11 62.8191 18.7 63.5191 19.44C64.2391 20.18 64.7791 21.04 65.1391 22.02C65.5191 23 65.7091 24.02 65.7091 25.08C65.7091 25.34 65.6991 25.59 65.6791 25.83C65.6791 26.07 65.6591 26.27 65.6191 26.43H53.4691C53.5291 27.05 53.6791 27.6 53.9191 28.08C54.1591 28.56 54.4691 28.97 54.8491 29.31C55.2291 29.65 55.6591 29.91 56.1391 30.09C56.6191 30.27 57.1191 30.36 57.6391 30.36C58.4391 30.36 59.1891 30.17 59.8891 29.79C60.6091 29.39 61.0991 28.87 61.3591 28.23L64.8091 29.19C64.2291 30.39 63.2991 31.38 62.0191 32.16C60.7591 32.92 59.2491 33.3 57.4891 33.3ZM61.5691 23.82C61.4691 22.64 61.0291 21.7 60.2491 21C59.4891 20.28 58.5591 19.92 57.4591 19.92C56.9191 19.92 56.4091 20.02 55.9291 20.22C55.4691 20.4 55.0591 20.66 54.6991 21C54.3391 21.34 54.0391 21.75 53.7991 22.23C53.5791 22.71 53.4491 23.24 53.4091 23.82H61.5691ZM68.0681 26.58V22.95H77.1581V26.58H68.0681Z" fill="#D42169"/>
<path d="M105.117 33H101.097V24.18C101.097 22.92 100.877 22 100.437 21.42C100.017 20.84 99.4272 20.55 98.6672 20.55C97.8672 20.55 97.1172 20.86 96.4172 21.48C95.7172 22.08 95.2172 22.87 94.9172 23.85V33H90.8972V24.18C90.8972 22.92 90.6772 22 90.2372 21.42C89.8172 20.84 89.2272 20.55 88.4672 20.55C87.6872 20.55 86.9372 20.85 86.2172 21.45C85.5172 22.05 85.0172 22.84 84.7172 23.82V33H80.6972V17.28H84.3272V20.19C84.9072 19.17 85.6972 18.39 86.6972 17.85C87.7172 17.29 88.8772 17.01 90.1772 17.01C91.4972 17.01 92.5172 17.33 93.2372 17.97C93.9572 18.61 94.4172 19.4 94.6172 20.34C95.2572 19.26 96.0672 18.44 97.0472 17.88C98.0272 17.3 99.1472 17.01 100.407 17.01C101.367 17.01 102.157 17.19 102.777 17.55C103.397 17.91 103.877 18.38 104.217 18.96C104.557 19.54 104.787 20.2 104.907 20.94C105.047 21.68 105.117 22.43 105.117 23.19V33ZM115.877 33.3C114.597 33.3 113.447 33.08 112.427 32.64C111.407 32.2 110.537 31.61 109.817 30.87C109.117 30.11 108.577 29.24 108.197 28.26C107.817 27.28 107.627 26.25 107.627 25.17C107.627 24.07 107.817 23.03 108.197 22.05C108.577 21.07 109.117 20.21 109.817 19.47C110.537 18.71 111.407 18.11 112.427 17.67C113.447 17.23 114.597 17.01 115.877 17.01C117.157 17.01 118.297 17.23 119.297 17.67C120.317 18.11 121.177 18.71 121.877 19.47C122.597 20.21 123.147 21.07 123.527 22.05C123.907 23.03 124.097 24.07 124.097 25.17C124.097 26.25 123.907 27.28 123.527 28.26C123.147 29.24 122.607 30.11 121.907 30.87C121.207 31.61 120.347 32.2 119.327 32.64C118.307 33.08 117.157 33.3 115.877 33.3ZM111.767 25.17C111.767 25.87 111.867 26.51 112.067 27.09C112.287 27.65 112.577 28.14 112.937 28.56C113.317 28.98 113.757 29.31 114.257 29.55C114.757 29.77 115.297 29.88 115.877 29.88C116.457 29.88 116.997 29.77 117.497 29.55C117.997 29.31 118.427 28.98 118.787 28.56C119.167 28.14 119.457 27.64 119.657 27.06C119.877 26.48 119.987 25.84 119.987 25.14C119.987 24.46 119.877 23.83 119.657 23.25C119.457 22.67 119.167 22.17 118.787 21.75C118.427 21.33 117.997 21.01 117.497 20.79C116.997 20.55 116.457 20.43 115.877 20.43C115.297 20.43 114.757 20.55 114.257 20.79C113.757 21.03 113.317 21.36 112.937 21.78C112.577 22.2 112.287 22.7 112.067 23.28C111.867 23.86 111.767 24.49 111.767 25.17ZM133.32 33.3C132.24 33.3 131.24 33.09 130.32 32.67C129.4 32.25 128.61 31.67 127.95 30.93C127.29 30.19 126.77 29.33 126.39 28.35C126.03 27.35 125.85 26.28 125.85 25.14C125.85 24 126.02 22.94 126.36 21.96C126.72 20.98 127.21 20.12 127.83 19.38C128.45 18.64 129.19 18.06 130.05 17.64C130.91 17.22 131.85 17.01 132.87 17.01C134.03 17.01 135.07 17.29 135.99 17.85C136.93 18.41 137.66 19.14 138.18 20.04V11.1H142.2V28.38C142.2 28.8 142.27 29.1 142.41 29.28C142.55 29.46 142.79 29.56 143.13 29.58V33C142.43 33.14 141.86 33.21 141.42 33.21C140.7 33.21 140.11 33.03 139.65 32.67C139.19 32.31 138.93 31.84 138.87 31.26L138.78 30.27C138.2 31.27 137.41 32.03 136.41 32.55C135.43 33.05 134.4 33.3 133.32 33.3ZM134.37 29.88C134.75 29.88 135.14 29.82 135.54 29.7C135.94 29.56 136.31 29.37 136.65 29.13C136.99 28.89 137.29 28.61 137.55 28.29C137.83 27.97 138.04 27.62 138.18 27.24V23.49C138.02 23.05 137.79 22.65 137.49 22.29C137.21 21.91 136.88 21.59 136.5 21.33C136.14 21.05 135.75 20.83 135.33 20.67C134.93 20.51 134.53 20.43 134.13 20.43C133.53 20.43 132.97 20.56 132.45 20.82C131.95 21.08 131.52 21.44 131.16 21.9C130.8 22.34 130.52 22.85 130.32 23.43C130.12 24.01 130.02 24.61 130.02 25.23C130.02 25.89 130.13 26.5 130.35 27.06C130.57 27.62 130.87 28.11 131.25 28.53C131.63 28.95 132.08 29.28 132.6 29.52C133.14 29.76 133.73 29.88 134.37 29.88ZM153.436 33.3C152.176 33.3 151.036 33.09 150.016 32.67C148.996 32.23 148.126 31.64 147.406 30.9C146.686 30.16 146.126 29.3 145.726 28.32C145.346 27.34 145.156 26.31 145.156 25.23C145.156 24.11 145.346 23.06 145.726 22.08C146.106 21.08 146.656 20.21 147.376 19.47C148.096 18.71 148.966 18.11 149.986 17.67C151.026 17.23 152.186 17.01 153.466 17.01C154.746 17.01 155.886 17.23 156.886 17.67C157.906 18.11 158.766 18.7 159.466 19.44C160.186 20.18 160.726 21.04 161.086 22.02C161.466 23 161.656 24.02 161.656 25.08C161.656 25.34 161.646 25.59 161.626 25.83C161.626 26.07 161.606 26.27 161.566 26.43H149.416C149.476 27.05 149.626 27.6 149.866 28.08C150.106 28.56 150.416 28.97 150.796 29.31C151.176 29.65 151.606 29.91 152.086 30.09C152.566 30.27 153.066 30.36 153.586 30.36C154.386 30.36 155.136 30.17 155.836 29.79C156.556 29.39 157.046 28.87 157.306 28.23L160.756 29.19C160.176 30.39 159.246 31.38 157.966 32.16C156.706 32.92 155.196 33.3 153.436 33.3ZM157.516 23.82C157.416 22.64 156.976 21.7 156.196 21C155.436 20.28 154.506 19.92 153.406 19.92C152.866 19.92 152.356 20.02 151.876 20.22C151.416 20.4 151.006 20.66 150.646 21C150.286 21.34 149.986 21.75 149.746 22.23C149.526 22.71 149.396 23.24 149.356 23.82H157.516ZM164.075 11.1H168.095V27.96C168.095 28.54 168.235 28.99 168.515 29.31C168.795 29.63 169.195 29.79 169.715 29.79C169.955 29.79 170.215 29.75 170.495 29.67C170.795 29.59 171.075 29.49 171.335 29.37L171.875 32.43C171.335 32.69 170.705 32.89 169.985 33.03C169.265 33.17 168.615 33.24 168.035 33.24C166.775 33.24 165.795 32.91 165.095 32.25C164.415 31.57 164.075 30.61 164.075 29.37V11.1ZM179.567 33.3C178.247 33.3 176.957 33.09 175.697 32.67C174.437 32.25 173.357 31.65 172.457 30.87L173.957 28.35C174.917 29.03 175.847 29.55 176.747 29.91C177.667 30.25 178.577 30.42 179.477 30.42C180.277 30.42 180.907 30.27 181.367 29.97C181.827 29.67 182.057 29.24 182.057 28.68C182.057 28.12 181.787 27.71 181.247 27.45C180.707 27.19 179.827 26.89 178.607 26.55C177.587 26.27 176.717 26 175.997 25.74C175.277 25.48 174.697 25.19 174.257 24.87C173.817 24.53 173.497 24.15 173.297 23.73C173.097 23.29 172.997 22.77 172.997 22.17C172.997 21.37 173.147 20.65 173.447 20.01C173.767 19.37 174.207 18.83 174.767 18.39C175.327 17.93 175.977 17.58 176.717 17.34C177.477 17.1 178.297 16.98 179.177 16.98C180.357 16.98 181.457 17.15 182.477 17.49C183.517 17.83 184.467 18.38 185.327 19.14L183.707 21.57C182.907 20.97 182.127 20.53 181.367 20.25C180.627 19.97 179.887 19.83 179.147 19.83C178.467 19.83 177.897 19.97 177.437 20.25C176.977 20.53 176.747 20.98 176.747 21.6C176.747 21.88 176.797 22.11 176.897 22.29C177.017 22.47 177.197 22.63 177.437 22.77C177.677 22.91 177.987 23.05 178.367 23.19C178.767 23.31 179.257 23.44 179.837 23.58C180.917 23.86 181.837 24.14 182.597 24.42C183.377 24.7 184.007 25.02 184.487 25.38C184.987 25.74 185.347 26.16 185.567 26.64C185.807 27.1 185.927 27.66 185.927 28.32C185.927 29.86 185.357 31.08 184.217 31.98C183.077 32.86 181.527 33.3 179.567 33.3Z" fill="#FFA2AF"/>
</svg>
